<?xml version="1.0" encoding="UTF-8" standalone="no"?>
<!-- Uploaded to: SVG Repo, www.svgrepo.com, Generator: SVG Repo Mixer Tools -->

<svg
   width="800"
   height="800"
   viewBox="0 0 1024 1024"
   fill="#000000"
   class="icon"
   version="1.1"
   id="svg37"
   xmlns="http://www.w3.org/2000/svg"
   xmlns:svg="http://www.w3.org/2000/svg">
  <defs
     id="defs37" />
  <path
     d="m 975.928,744.598 a 8.006,8.006 0 0 1 -7.856,-6.608 L 912.534,422.994 a 7.998,7.998 0 0 1 6.482,-9.262 c 4.216,-0.774 8.48,2.124 9.26,6.48 l 55.54,314.998 a 8.002,8.002 0 0 1 -7.888,9.388 z m 8.34,47.242 a 7.99,7.99 0 0 1 -7.856,-6.606 C 969.198,744.41 812.878,736.88 716.032,741.77 c -4.826,0.218 -8.184,-3.186 -8.386,-7.59 a 7.974,7.974 0 0 1 7.574,-8.372 c 27.098,-1.376 264.926,-11.34 276.938,56.646 a 7.992,7.992 0 0 1 -6.482,9.26 c -0.47,0.094 -0.94,0.126 -1.408,0.126 z"
     fill=""
     id="path1"
     style="fill:#ffffff" />
  <path
     d="m 676.722,521.292 a 8,8 0 0 1 -7.858,-6.606 8,8 0 0 1 6.482,-9.264 c 67.906,-11.994 241.374,-58.66 228.848,-129.69 a 7.998,7.998 0 0 1 6.48,-9.262 c 4.25,-0.774 8.496,2.124 9.262,6.48 7.686,43.528 -31.5,81.814 -116.46,113.792 -60.91,22.918 -124.708,34.312 -125.35,34.422 a 7.408,7.408 0 0 1 -1.404,0.128 z"
     fill=""
     id="path2"
     style="fill:#ffffff" />
  <path
     d="m 912.05,382.34 a 7.992,7.992 0 0 1 -7.856,-6.614 7.998,7.998 0 0 1 6.48,-9.262 l 31.518,-5.544 c 4.28,-0.688 8.512,2.14 9.262,6.498 a 7.996,7.996 0 0 1 -6.482,9.262 l -31.516,5.542 a 8.534,8.534 0 0 1 -1.406,0.118 z"
     fill=""
     id="path3"
     style="fill:#ffffff" />
  <path
     d="m 1015.754,786.296 a 8.006,8.006 0 0 1 -7.856,-6.608 l -72.186,-409.5 a 7.996,7.996 0 0 1 6.48,-9.262 c 4.28,-0.774 8.496,2.124 9.262,6.482 l 72.186,409.5 a 8,8 0 0 1 -7.886,9.388 z"
     fill=""
     id="path4"
     style="fill:#ffffff" />
  <path
     d="m 984.268,791.84 a 7.992,7.992 0 0 1 -1.374,-15.868 l 31.484,-5.542 c 4.232,-0.812 8.48,2.108 9.262,6.48 a 8,8 0 0 1 -6.48,9.262 l -31.486,5.542 a 7.112,7.112 0 0 1 -1.406,0.126 z M 558.12,769.554 a 8.006,8.006 0 0 1 -7.856,-6.608 L 511.376,542.454 a 7.912,7.912 0 0 1 1.328,-5.966 7.86,7.86 0 0 1 5.154,-3.294 l 157.49,-27.77 c 4.232,-0.794 8.48,2.124 9.262,6.482 a 7.998,7.998 0 0 1 -6.482,9.262 l -149.62,26.378 36.11,204.75 149.62,-26.378 c 4.28,-0.796 8.496,2.124 9.26,6.48 a 8,8 0 0 1 -6.48,9.262 l -157.49,27.77 c -0.472,0.078 -0.94,0.124 -1.408,0.124 z"
     fill=""
     id="path5"
     style="fill:#ffffff" />
  <path
     d="m 558.134,769.554 a 7.24,7.24 0 0 1 -1.638,-0.172 L 472.19,751.764 a 7.96,7.96 0 0 1 -6.23,-6.436 l -27.77,-157.49 a 7.974,7.974 0 0 1 3.656,-8.184 L 515.03,534.27 a 8.13,8.13 0 0 1 7.482,-0.5 7.966,7.966 0 0 1 4.606,5.904 l 38.888,220.492 a 7.944,7.944 0 0 1 -2.31,7.122 7.934,7.934 0 0 1 -5.562,2.266 z m -77.37,-32.346 67.44,14.104 -34.782,-197.238 -58.552,36.328 z M 710.05,710.27 a 8.004,8.004 0 0 1 -7.856,-6.608 l -27.77,-157.49 a 8,8 0 0 1 6.48,-9.262 c 4.282,-0.796 8.496,2.11 9.262,6.482 l 27.77,157.49 a 8,8 0 0 1 -7.886,9.388 z"
     fill=""
     id="path6"
     style="fill:#ffffff" />
  <path
     d="m 483.092,620.374 a 7.98,7.98 0 0 1 -7.856,-6.608 8.016,8.016 0 0 1 6.48,-9.278 l 15.744,-2.748 c 4.28,-0.75 8.496,2.124 9.26,6.498 a 7.974,7.974 0 0 1 -6.48,9.244 l -15.744,2.782 a 10.708,10.708 0 0 1 -1.404,0.11 z m 16.648,94.502 a 7.98,7.98 0 0 1 -7.856,-6.622 7.974,7.974 0 0 1 6.496,-9.246 l 15.776,-2.78 c 4.278,-0.718 8.48,2.154 9.244,6.496 a 8.014,8.014 0 0 1 -6.496,9.278 l -15.774,2.748 a 6.954,6.954 0 0 1 -1.39,0.126 z m -8.308,-47.244 a 8.006,8.006 0 0 1 -7.856,-6.608 8,8 0 0 1 6.48,-9.262 l 15.744,-2.78 c 4.216,-0.812 8.482,2.11 9.26,6.48 a 8,8 0 0 1 -6.48,9.262 l -15.744,2.782 c -0.466,0.08 -0.936,0.126 -1.404,0.126 z M 533.6,538.41 a 7.994,7.994 0 0 1 -1.376,-15.868 l 31.486,-5.56 c 4.216,-0.774 8.48,2.124 9.262,6.48 a 7.998,7.998 0 0 1 -6.482,9.262 l -31.484,5.56 c -0.468,0.08 -0.938,0.126 -1.406,0.126 z M 773.038,975.242 A 7.982,7.982 0 0 1 765.9,970.836 L 690.872,821.688 c -1.984,-3.954 -0.406,-8.762 3.544,-10.73 3.904,-2 8.73,-0.422 10.73,3.544 l 75.028,149.15 c 1.984,3.952 0.406,8.762 -3.544,10.73 a 7.8,7.8 0 0 1 -3.592,0.86 z m -78.746,13.898 a 7.98,7.98 0 0 1 -7.136,-4.404 l -75.03,-149.182 c -1.982,-3.952 -0.404,-8.762 3.546,-10.728 3.92,-2 8.73,-0.438 10.728,3.544 l 75.03,149.182 c 1.982,3.952 0.406,8.762 -3.546,10.728 a 7.764,7.764 0 0 1 -3.592,0.86 z"
     fill=""
     id="path7"
     style="fill:#ffffff" />
  <path
     d="m 678.502,991.906 a 7.992,7.992 0 0 1 -7.856,-6.608 7.992,7.992 0 0 1 6.48,-9.262 L 787.39,956.592 c 4.246,-0.796 8.48,2.108 9.26,6.48 a 8,8 0 0 1 -6.48,9.262 L 679.908,991.78 a 6.964,6.964 0 0 1 -1.406,0.126 z M 582.204,814.034 a 8,8 0 0 1 -7.856,-6.606 l -3.124,-17.726 a 7.992,7.992 0 0 1 6.482,-9.262 c 4.232,-0.812 8.48,2.124 9.26,6.482 l 3.124,17.726 a 8,8 0 0 1 -7.886,9.386 z"
     fill=""
     id="path8"
     style="fill:#ffffff" />
  <path
     d="m 582.204,814.034 a 8.004,8.004 0 0 1 -7.872,-6.636 8.01,8.01 0 0 1 6.528,-9.246 l 141.81,-24.52 a 8.08,8.08 0 0 1 9.244,6.528 8.01,8.01 0 0 1 -6.528,9.246 l -141.81,24.52 c -0.452,0.06 -0.92,0.108 -1.372,0.108 z"
     fill=""
     id="path9"
     style="fill:#ffffff" />
  <path
     d="m 724.012,789.514 a 8.004,8.004 0 0 1 -7.856,-6.608 l -2.78,-15.742 a 8,8 0 0 1 6.48,-9.262 c 4.264,-0.796 8.496,2.124 9.262,6.482 l 2.78,15.742 a 8,8 0 0 1 -7.886,9.388 z M 1015.77,527.868 a 7.99,7.99 0 0 1 -7.996,-7.996 V 40.092 c 0,-4.42 3.576,-7.998 7.996,-7.998 4.42,0 7.996,3.578 7.996,7.998 v 479.78 a 7.99,7.99 0 0 1 -7.996,7.996 z M 104.186,751.766 A 7.992,7.992 0 0 1 96.19,743.77 V 40.092 a 7.994,7.994 0 0 1 7.996,-7.998 7.994,7.994 0 0 1 7.998,7.998 V 743.77 a 7.992,7.992 0 0 1 -7.998,7.996 z"
     fill=""
     id="path10"
     style="fill:#ffffff" />
  <path
     d="m 56.208,799.742 a 7.99,7.99 0 0 1 -7.996,-7.996 7.992,7.992 0 0 1 7.996,-7.996 c 22.052,0 39.982,-17.93 39.982,-39.98 a 7.992,7.992 0 0 1 7.996,-7.996 7.992,7.992 0 0 1 7.998,7.996 c 0,30.858 -25.114,55.972 -55.976,55.972 z"
     fill=""
     id="path11"
     style="fill:#ffffff" />
  <path
     d="m 56.208,799.742 c -30.862,0 -55.974,-25.114 -55.974,-55.972 0,-4.42 3.576,-7.996 7.996,-7.996 4.42,0 7.996,3.576 7.996,7.996 0,22.05 17.93,39.98 39.982,39.98 a 7.992,7.992 0 0 1 7.996,7.996 7.988,7.988 0 0 1 -7.996,7.996 z"
     fill=""
     id="path12"
     style="fill:#ffffff" />
  <path
     d="M 8.23,751.766 A 7.99,7.99 0 0 1 0.234,743.77 V 88.068 c 0,-4.42 3.576,-7.996 7.996,-7.996 4.42,0 7.996,3.576 7.996,7.996 V 743.77 a 7.99,7.99 0 0 1 -7.996,7.996 z m 63.972,0 A 7.99,7.99 0 0 1 64.206,743.77 V 56.084 c 0,-4.42 3.576,-7.996 7.996,-7.996 4.42,0 7.996,3.576 7.996,7.996 V 743.77 a 7.99,7.99 0 0 1 -7.996,7.996 z m -31.986,0 A 7.992,7.992 0 0 1 32.22,743.77 V 72.076 a 7.992,7.992 0 0 1 7.996,-7.996 7.992,7.992 0 0 1 7.998,7.996 V 743.77 a 7.994,7.994 0 0 1 -7.998,7.996 z"
     fill=""
     id="path13"
     style="fill:#ffffff" />
  <path
     d="m 56.208,767.758 c -4.42,0 -7.996,-3.576 -7.996,-7.996 0,-4.42 3.576,-7.996 7.996,-7.996 a 8.012,8.012 0 0 0 7.996,-7.996 c 0,-4.42 3.576,-7.996 7.996,-7.996 4.42,0 7.996,3.576 7.996,7.996 0.002,13.226 -10.758,23.988 -23.988,23.988 z"
     fill=""
     id="path14"
     style="fill:#ffffff" />
  <path
     d="m 56.208,767.758 c -13.228,0 -23.99,-10.762 -23.99,-23.988 a 7.992,7.992 0 0 1 7.996,-7.996 7.992,7.992 0 0 1 7.998,7.996 8.012,8.012 0 0 0 7.996,7.996 c 4.42,0 7.996,3.576 7.996,7.996 0,4.42 -3.576,7.996 -7.996,7.996 z m 449.294,31.984 H 56.208 a 7.99,7.99 0 0 1 -7.996,-7.996 7.992,7.992 0 0 1 7.996,-7.996 h 449.294 a 7.994,7.994 0 0 1 7.998,7.996 7.992,7.992 0 0 1 -7.998,7.996 z M 1015.77,48.088 H 104.186 a 7.994,7.994 0 0 1 -7.996,-7.996 7.994,7.994 0 0 1 7.996,-7.998 h 911.584 a 7.992,7.992 0 0 1 7.996,7.998 7.992,7.992 0 0 1 -7.996,7.996 z M 951.798,208.014 H 200.142 a 7.99,7.99 0 0 1 -7.996,-7.996 v -95.956 a 7.992,7.992 0 0 1 7.996,-7.998 h 751.656 a 7.992,7.992 0 0 1 7.996,7.998 v 95.956 a 7.99,7.99 0 0 1 -7.996,7.996 z M 208.138,192.022 H 943.802 V 112.058 H 208.138 Z"
     fill=""
     id="path15"
     style="fill:#ffffff" />
  <path
     d="m 903.82,160.036 h -655.7 c -4.42,0 -7.996,-3.576 -7.996,-7.996 0,-4.42 3.576,-7.996 7.996,-7.996 h 655.7 c 4.42,0 7.996,3.576 7.996,7.996 0,4.42 -3.576,7.996 -7.996,7.996 z m 15.992,639.706 H 775.878 a 7.99,7.99 0 0 1 -7.996,-7.996 7.992,7.992 0 0 1 7.996,-7.996 h 143.934 a 7.99,7.99 0 0 1 7.996,7.996 7.988,7.988 0 0 1 -7.996,7.996 z M 424.042,415.918 h -223.9 a 7.99,7.99 0 0 1 -7.996,-7.996 V 263.988 a 7.99,7.99 0 0 1 7.996,-7.996 H 424.04 a 7.992,7.992 0 0 1 7.996,7.996 v 143.934 a 7.99,7.99 0 0 1 -7.994,7.996 z M 208.138,399.926 H 416.044 V 271.984 H 208.138 Z"
     fill=""
     id="path16"
     style="fill:#ffffff" />
  <path
     d="m 296.1,399.926 a 8.008,8.008 0 0 1 -6.404,-12.792 l 47.978,-63.97 a 8.014,8.014 0 0 1 11.198,-1.6 8.006,8.006 0 0 1 1.61,11.19 l -47.978,63.97 a 8,8 0 0 1 -6.404,3.202 z"
     fill=""
     id="path17"
     style="fill:#ffffff" />
  <path
     d="m 392.054,399.926 a 7.992,7.992 0 0 1 -6.402,-3.202 l -47.978,-63.97 a 8.004,8.004 0 0 1 1.608,-11.19 7.996,7.996 0 0 1 11.198,1.6 l 47.978,63.97 a 8.008,8.008 0 0 1 -6.404,12.792 z m -143.932,0 a 7.998,7.998 0 0 1 -6.654,-12.432 l 31.986,-47.978 a 8.008,8.008 0 0 1 11.088,-2.216 7.998,7.998 0 0 1 2.218,11.088 l -31.986,47.978 a 7.992,7.992 0 0 1 -6.652,3.56 z"
     fill=""
     id="path18"
     style="fill:#ffffff" />
  <path
     d="m 290.758,367.942 a 7.994,7.994 0 0 1 -6.654,-3.56 L 273.452,348.388 A 7.994,7.994 0 0 1 275.67,337.3 c 3.638,-2.454 8.622,-1.46 11.088,2.216 l 10.65,15.994 a 7.994,7.994 0 0 1 -6.65,12.432 z m -42.636,-31.986 c -13.228,0 -23.99,-10.76 -23.99,-23.988 0,-13.228 10.76,-23.99 23.99,-23.99 13.23,0 23.988,10.762 23.988,23.99 0,13.228 -10.76,23.988 -23.988,23.988 z m 0,-31.986 c -4.404,0 -7.996,3.584 -7.996,7.996 0,4.412 3.592,7.996 7.996,7.996 4.404,0 7.996,-3.584 7.996,-7.996 0,-4.412 -3.592,-7.996 -7.996,-7.996 z"
     fill=""
     id="path19"
     style="fill:#ffffff" />
  <path
     d="M 679.924,271.984 H 472.018 c -4.42,0 -7.998,-3.576 -7.998,-7.996 0,-4.42 3.578,-7.996 7.998,-7.996 h 207.906 c 4.42,0 7.996,3.576 7.996,7.996 0,4.42 -3.576,7.996 -7.996,7.996 z"
     fill=""
     id="path20"
     style="fill:#ffffff" />
  <path
     d="M 679.924,319.962 H 472.018 c -4.42,0 -7.998,-3.576 -7.998,-7.996 0,-4.42 3.578,-7.996 7.998,-7.996 h 207.906 c 4.42,0 7.996,3.576 7.996,7.996 0,4.42 -3.576,7.996 -7.996,7.996 z"
     fill=""
     id="path21"
     style="fill:#ffffff" />
  <path
     d="M 679.924,367.942 H 472.018 c -4.42,0 -7.998,-3.576 -7.998,-7.996 0,-4.42 3.578,-7.998 7.998,-7.998 h 207.906 c 4.42,0 7.996,3.578 7.996,7.998 0,4.42 -3.576,7.996 -7.996,7.996 z"
     fill=""
     id="path22"
     style="fill:#ffffff" />
  <path
     d="M 679.924,415.918 H 472.018 c -4.42,0 -7.998,-3.576 -7.998,-7.996 0,-4.42 3.578,-7.996 7.998,-7.996 h 207.906 c 4.42,0 7.996,3.576 7.996,7.996 0,4.42 -3.576,7.996 -7.996,7.996 z"
     fill=""
     id="path23"
     style="fill:#ffffff" />
  <path
     d="M 679.924,463.896 H 472.018 c -4.42,0 -7.998,-3.576 -7.998,-7.996 0,-4.42 3.578,-7.996 7.998,-7.996 h 207.906 c 4.42,0 7.996,3.576 7.996,7.996 0,4.42 -3.576,7.996 -7.996,7.996 z"
     fill=""
     id="path24"
     style="fill:#ffffff" />
  <path
     d="m 504.004,511.876 h -31.986 c -4.42,0 -7.998,-3.576 -7.998,-7.996 0,-4.42 3.578,-7.996 7.998,-7.996 h 31.986 c 4.42,0 7.996,3.576 7.996,7.996 0,4.42 -3.576,7.996 -7.996,7.996 z"
     fill=""
     id="path25"
     style="fill:#ffffff" />
  <path
     d="M 424.79,463.896 H 200.892 c -4.42,0 -7.996,-3.576 -7.996,-7.996 0,-4.42 3.576,-7.996 7.996,-7.996 H 424.79 c 4.42,0 7.996,3.576 7.996,7.996 0,4.42 -3.576,7.996 -7.996,7.996 z"
     fill=""
     id="path26"
     style="fill:#ffffff" />
  <path
     d="M 392.804,655.808 H 200.892 c -4.42,0 -7.996,-3.576 -7.996,-7.996 0,-4.42 3.576,-7.996 7.996,-7.996 h 191.912 c 4.42,0 7.996,3.576 7.996,7.996 0,4.42 -3.576,7.996 -7.996,7.996 z"
     fill=""
     id="path27"
     style="fill:#ffffff" />
  <path
     d="M 408.796,703.788 H 200.892 c -4.42,0 -7.996,-3.576 -7.996,-7.996 0,-4.42 3.576,-7.996 7.996,-7.996 h 207.904 c 4.42,0 7.996,3.576 7.996,7.996 0,4.42 -3.576,7.996 -7.996,7.996 z"
     fill=""
     id="path28"
     style="fill:#ffffff" />
  <path
     d="M 424.79,751.766 H 200.892 c -4.42,0 -7.996,-3.576 -7.996,-7.996 0,-4.42 3.576,-7.996 7.996,-7.996 H 424.79 c 4.42,0 7.996,3.576 7.996,7.996 0,4.42 -3.576,7.996 -7.996,7.996 z"
     fill=""
     id="path29"
     style="fill:#ffffff" />
  <path
     d="M 424.79,511.876 H 200.892 c -4.42,0 -7.996,-3.576 -7.996,-7.996 0,-4.42 3.576,-7.996 7.996,-7.996 H 424.79 c 4.42,0 7.996,3.576 7.996,7.996 0,4.42 -3.576,7.996 -7.996,7.996 z"
     fill=""
     id="path30"
     style="fill:#ffffff" />
  <path
     d="M 408.796,559.854 H 200.892 c -4.42,0 -7.996,-3.576 -7.996,-7.996 0,-4.42 3.576,-7.998 7.996,-7.998 h 207.904 c 4.42,0 7.996,3.578 7.996,7.998 0,4.42 -3.576,7.996 -7.996,7.996 z"
     fill=""
     id="path31"
     style="fill:#ffffff" />
  <path
     d="M 392.804,607.832 H 200.892 a 7.992,7.992 0 0 1 -7.996,-7.996 7.992,7.992 0 0 1 7.996,-7.998 h 191.912 a 7.992,7.992 0 0 1 7.996,7.998 7.992,7.992 0 0 1 -7.996,7.996 z"
     fill=""
     id="path32"
     style="fill:#ffffff" />
  <path
     d="M 951.798,271.984 H 727.902 c -4.422,0 -7.998,-3.576 -7.998,-7.996 0,-4.42 3.576,-7.996 7.998,-7.996 h 223.896 c 4.42,0 7.996,3.576 7.996,7.996 0,4.42 -3.576,7.996 -7.996,7.996 z"
     fill=""
     id="path33"
     style="fill:#ffffff" />
  <path
     d="M 951.798,319.962 H 727.902 c -4.422,0 -7.998,-3.576 -7.998,-7.996 0,-4.42 3.576,-7.996 7.998,-7.996 h 223.896 c 4.42,0 7.996,3.576 7.996,7.996 0,4.42 -3.576,7.996 -7.996,7.996 z"
     fill=""
     id="path34"
     style="fill:#ffffff" />
  <path
     d="M 871.836,367.942 H 727.902 c -4.422,0 -7.998,-3.576 -7.998,-7.996 0,-4.42 3.576,-7.998 7.998,-7.998 h 143.934 c 4.42,0 7.996,3.578 7.996,7.998 0,4.42 -3.576,7.996 -7.996,7.996 z"
     fill=""
     id="path35"
     style="fill:#ffffff" />
  <path
     d="m 823.858,415.918 h -95.956 c -4.422,0 -7.998,-3.576 -7.998,-7.996 0,-4.42 3.576,-7.996 7.998,-7.996 h 95.956 c 4.42,0 7.996,3.576 7.996,7.996 0,4.42 -3.576,7.996 -7.996,7.996 z"
     fill=""
     id="path36"
     style="fill:#ffffff" />
  <path
     d="m 743.894,463.896 h -15.992 c -4.422,0 -7.998,-3.576 -7.998,-7.996 0,-4.42 3.576,-7.996 7.998,-7.996 h 15.992 c 4.42,0 7.996,3.576 7.996,7.996 0,4.42 -3.576,7.996 -7.996,7.996 z"
     fill=""
     id="path37"
     style="fill:#ffffff" />
</svg>
